PSF_ID_stride6.mot
nRows=12
nColumns=38

name PSF_ID_stride6.mot
datacolumns 38
datarows 12
range 3.4700000000 3.5250000000
endheader
time	pelvis_tilt_moment	pelvis_list_moment	pelvis_rotation_moment	pelvis_tx_force	pelvis_ty_force	pelvis_tz_force	hip_flexion_r_moment	hip_adduction_r_moment	hip_rotation_r_moment	knee_angle_r_moment	ankle_angle_r_moment	subtalar_angle_r_moment	mtp_angle_r_moment	hip_flexion_l_moment	hip_adduction_l_moment	hip_rotation_l_moment	knee_angle_l_moment	ankle_angle_l_moment	subtalar_angle_l_moment	mtp_angle_l_moment	lumbar_extension_moment	lumbar_bending_moment	lumbar_rotation_moment	arm_flex_r_moment	arm_add_r_moment	arm_rot_r_moment	elbow_flex_r_moment	pro_sup_r_moment	wrist_flex_r_moment	wrist_dev_r_moment	arm_flex_l_moment	arm_add_l_moment	arm_rot_l_moment	elbow_flex_l_moment	pro_sup_l_moment	wrist_flex_l_moment	wrist_dev_l_moment
        3.4700000000	       22.4107792599	      -21.7735489902	       34.7471651202	      -30.8185967870	     -104.7195133529	      -77.1095605859	      -12.0453962612	       -3.6079292966	        0.5320353706	        0.5750502158	        2.4467164656	       -0.5388244545	        0.1325261236	        0.3327575604	      -33.8989458446	      -14.8477408776	       -4.5060817769	     -184.3349349144	       26.4191728245	       -0.0475495732	        5.5974267740	        0.5938822265	       41.3288524993	        7.4054246979	        5.6177229265	        4.4492828283	        4.5364690019	        0.0454394036	        0.5617692205	       -0.2599549236	       -1.0056788942	       -2.1698681098	       -3.4360276441	        4.0826094874	       -0.2001586974	       -0.3174759136	       -0.4212258195	
        3.4750000000	       21.5528769691	      -32.2534220752	       33.7258216952	       -8.2439118625	     -101.4870290212	      -64.4130084664	      -14.4294865916	       -4.1673176044	        0.4931229591	        0.0026917532	        2.4493811569	       -0.5552831778	        0.1302891939	       -0.2663058197	      -26.0777575291	      -15.2424676612	      -10.4466477577	     -169.9692580906	       25.3824208590	       -0.0561169952	       -3.4776445245	        2.3734100787	       40.7427555793	        6.9869784688	        5.0663444248	        4.1635287000	        3.9613301577	        0.0506352105	        0.5245384383	       -0.2097578038	       -1.3771345322	       -2.1228677371	       -3.3105321984	        3.4358738580	       -0.1853643054	       -0.3214517110	       -0.3583078200	
        3.4800000000	       17.4958773236	      -34.0025537623	       29.0541828866	        9.2494784489	      -88.5421366330	      -55.3674053686	      -16.6415835940	       -4.7302915566	        0.4734974235	       -0.5706419623	        2.4734013782	       -0.5792613271	        0.1294669360	        6.4971163537	      -21.4387289045	      -11.8918818336	      -12.6677770385	     -154.3433202356	       24.6577795010	       -0.0646493994	       -9.8203503104	        3.9122987898	       38.7984679013	        6.4446217374	        4.4348416576	        3.8027347700	        3.4367634810	        0.0520555395	        0.4795345455	       -0.1677119060	       -1.6734917038	       -1.8863173128	       -3.0467954434	        2.8604574232	       -0.1681087124	       -0.3075153950	       -0.3000661072	
        3.4850000000	       12.1754984475	      -28.6106844894	       23.0333959560	       21.8336391524	      -67.7075299740	      -52.9374133677	      -18.3080659839	       -5.1976196645	        0.4977625927	       -1.0744536650	        2.5209450088	       -0.6132757622	        0.1301744617	       17.1705477541	      -19.2351252420	       -7.0423359394	      -11.8942656122	     -137.5144359723	       23.4959769880	       -0.0722649506	      -13.6859324559	        4.6324355777	       36.4249770495	        5.8620223859	        3.7897283870	        3.4112339512	        2.9815091426	        0.0511018011	        0.4326249045	       -0.1342455343	       -1.9133057063	       -1.5857041999	       -2.7339641486	        2.3607875512	       -0.1504545501	       -0.2865259220	       -0.2487505164	
        3.4900000000	        7.6710961915	      -19.6331421117	       18.2969770560	       31.2672286692	      -40.1200350709	      -54.2790330580	      -19.2823836576	       -5.3510618573	        0.5659581944	       -1.4792909270	        2.5918446144	       -0.6574767407	        0.1319636582	       28.0443992219	      -16.9143434487	       -2.9609316182	      -10.5151788508	     -120.0515617480	       21.5353793456	       -0.0773820191	      -15.0407629703	        4.3006809121	       34.0457261151	        5.3041878695	        3.1805802599	        3.0329879608	        2.6019081213	        0.0492975328	        0.3887960391	       -0.1087363324	       -2.1345908025	       -1.2678045021	       -2.4170875813	        1.9301007215	       -0.1339394814	       -0.2632523366	       -0.2052082186	
        3.4950000000	        6.7005062938	      -11.1307240790	       17.4681627358	       38.7429454295	      -10.2880429844	      -57.8935039690	      -19.7718134290	       -5.2453633345	        0.6585549731	       -1.8069018042	        2.6779386264	       -0.7088404738	        0.1345001920	       35.3954220666	      -13.0123334799	       -2.0830014149	      -10.3306483838	     -103.3529391611	       18.9951627639	       -0.0779432783	      -14.9053387215	        2.8007868214	       32.0296619186	        4.8056076899	        2.6414472121	        2.7033119514	        2.2889461825	        0.0485724948	        0.3517613665	       -0.0893016483	       -2.3797542292	       -0.9768084602	       -2.1335353133	        1.5503973146	       -0.1195146187	       -0.2422814196	       -0.1687410488	
        3.5000000000	        7.6395032386	       -3.5445464331	       19.1743695642	       43.2996479696	       12.1874153623	      -61.1233519892	      -20.1534334958	       -4.5197753310	        0.7013924504	       -2.1206934630	        2.7633288300	       -0.7602583014	        0.1370419026	       39.6615794125	       -6.6280400004	       -2.7633920272	      -11.4907755311	      -88.6303021757	       16.6434246022	       -0.0740080404	      -13.1530228929	       -0.0733414840	       30.5936090868	        4.3641128912	        2.1865729602	        2.4425883662	        2.0177855411	        0.0486974152	        0.3231867216	       -0.0730401341	       -2.6904851359	       -0.7450056660	       -1.9049595229	        1.1944141721	       -0.1073217498	       -0.2266961538	       -0.1371276741	
        3.5050000000	       11.4485402686	        4.6932049957	       23.6868754327	       44.9668143989	       23.9454155673	      -63.2805419677	      -20.8969532662	       -2.9338989388	        0.6288466420	       -2.5001382663	        2.8368596646	       -0.8058587990	        0.1391819059	       42.5022651865	        1.2255774670	       -5.0217666749	      -13.3294633646	      -76.2099199783	       14.9653952694	       -0.0608040318	      -10.2495005437	       -4.0003062774	       29.6898126414	        3.9595531881	        1.8084189473	        2.2475745592	        1.7619635722	        0.0518412078	        0.3021666671	       -0.0573169352	       -3.1000173019	       -0.5762232036	       -1.7308936915	        0.8359957546	       -0.0969396635	       -0.2165354376	       -0.1078970993	
        3.5100000000	       13.7514980851	       16.6161024540	       26.7022806902	       42.4192141231	       18.1585633993	      -63.0130864109	      -22.4867854197	       -0.4801900870	        0.4089659859	       -3.0765133255	        2.8728785861	       -0.8357605121	        0.1403268809	       48.0345564716	        7.3734752586	       -4.9603851761	      -12.6632359687	      -64.2406621374	       13.4701820281	       -0.0398474365	       -7.1000906319	       -8.3151224433	       29.1446584562	        3.5369268792	        1.4749778071	        2.0980136383	        1.4712098101	        0.0567885250	        0.2852054405	       -0.0379975592	       -3.5899921854	       -0.4686051489	       -1.5952586447	        0.4374714763	       -0.0868261169	       -0.2114852341	       -0.0763574818	
        3.5150000000	       13.5400069781	       31.8967166509	       27.0235168543	       34.0914053362	       -6.2161785298	      -60.3225455840	      -25.4437237191	        3.0927279074	       -0.0330880881	       -3.9905294738	        2.8738883376	       -0.8426778046	        0.1405150250	       56.9888319439	        9.9663816327	       -3.0796250226	       -9.2422919603	      -51.9138674130	       11.6190482714	       -0.0087783496	       -4.3030667812	      -12.5043262941	       28.6133005602	        3.0647825164	        1.1525846765	        1.9602704495	        1.1165005642	        0.0634328256	        0.2680873757	       -0.0128701063	       -4.1316116189	       -0.3921793972	       -1.4710358533	       -0.0198579725	       -0.0757772392	       -0.2080720400	       -0.0398558711	
        3.5200000000	       10.1215070098	       44.1276399804	       25.3484445260	       22.0895201875	      -49.9901389850	      -52.1319720064	      -29.7707038008	        7.6455774740	       -0.6104592682	       -5.3782595314	        2.8442735393	       -0.8412885196	        0.1404588294	       64.6710486011	       10.4202803331	        0.9200409965	       -4.5795610949	      -39.6035394195	        9.1413205850	        0.0314937747	       -3.1365339069	      -15.8444250643	       27.7657788461	        2.5168885062	        0.8017366174	        1.7973009953	        0.6763657190	        0.0703599430	        0.2460845151	        0.0193257784	       -4.6501115478	       -0.3159700394	       -1.3277823078	       -0.5412964433	       -0.0624671659	       -0.2037070372	        0.0037093443	
        3.5250000000	        4.8736593004	       48.5059328823	       23.2885962586	        9.8931936514	     -107.3725795441	      -36.0806999510	      -35.1858201344	       12.9260207624	       -1.1878347080	       -7.3896525865	        2.7968702035	       -0.8287947432	        0.1406727751	       67.0571526949	       10.2363355611	        4.1665098944	       -2.4528772881	      -29.2729292258	        6.7367074725	        0.0799330357	       -3.1532122262	      -17.7234333587	       26.1950155405	        1.8868063649	        0.3914479930	        1.5718072379	        0.1509437042	        0.0761217577	        0.2147639136	        0.0580214479	       -5.0694511316	       -0.2049093018	       -1.1348852937	       -1.1129144054	       -0.0460499102	       -0.1944246329	        0.0545401321	
